<?xml version="1.0" encoding="UTF-8"?>
<svg width="189px" height="157px" viewBox="0 0 189 157" version="1.1" xmlns="http://www.w3.org/2000/svg" xmlns:xlink="http://www.w3.org/1999/xlink">
    <!-- Generator: Sketch 41.2 (35397) - http://www.bohemiancoding.com/sketch -->
    <title>Hover</title>
    <desc>Created with Sketch.</desc>
    <defs></defs>
    <g id="Page-1" stroke="none" stroke-width="1" fill="none" fill-rule="evenodd">
        <g id="Vision6-Icon-Hover" transform="translate(-48.000000, -24.000000)">
            <g id="Hover" transform="translate(48.000000, 24.000000)">
                <path d="M0,51.1839835 C0,48.4257468 2.08390151,45.3696505 4.65403667,44.3581934 L89.8459633,10.8315606 C92.4163168,9.82001762 96.5839015,9.82010354 99.1540367,10.8315606 L184.345963,44.3581934 C186.916317,45.3697364 189,48.4368919 189,51.1839835 L189,151.195525 C189,153.953761 186.76244,156.189754 183.99339,156.189754 L5.00660953,156.189754 C2.24153544,156.189754 0,153.942616 0,151.195525 L0,51.1839835 Z" id="Rectangle-10" fill="#FFE279"></path>
                <path d="M20,7.10542736e-15 L169,7.10542736e-15 L169.203782,64.8240127 L98.4415752,93.8492294 C95.8839733,94.8983056 91.7531317,94.8893692 89.1931657,93.8201151 L19.7718403,64.8240127 L20,7.10542736e-15 Z" id="Rectangle" fill="#FFFFFF"></path>
                <path d="M5,58 L89.4023854,94.1581652 C91.9415778,95.2459608 96.0594552,95.250647 98.5934034,94.1714085 L183.520392,58" id="Path-2" stroke="#E8B705" stroke-width="2" stroke-linecap="round"></path>
                <path d="M5.5,148.5 L73.5,100.5" id="Line" stroke="#E9B704" stroke-linecap="square"></path>
                <path d="M115.5,148.5 L183.5,100.5" id="Line" stroke="#E9B704" stroke-linecap="square" transform="translate(149.500000, 124.500000) scale(-1, 1) translate(-149.500000, -124.500000) "></path>
                <rect id="Rectangle-11" fill="#4990E2" x="20" y="0" width="149" height="49"></rect>
                <rect id="Rectangle-12" fill="#333333" opacity="0.5" x="38" y="30" width="87" height="7"></rect>
            </g>
        </g>
    </g>
</svg>